<?xml version="1.0" encoding="iso-8859-1"?>
<!-- Generator: Adobe Illustrator 19.0.0, SVG Export Plug-In . SVG Version: 6.00 Build 0)  -->
<svg version="1.1" id="Layer_1" xmlns="http://www.w3.org/2000/svg" xmlns:xlink="http://www.w3.org/1999/xlink" x="0px" y="0px"
	 viewBox="0 0 512 512" style="enable-background:new 0 0 512 512;" xml:space="preserve">
<polygon style="fill:#D8D8DA;" points="318.234,355.61 196.397,284.807 185.564,294.046 209.665,394.615 151.169,428.387 
	151.206,441.197 273.042,512 345.665,470.071 "/>
<g style="enable-background:new    ;">
	<polygon style="fill:#C6C5CB;" points="273.042,512 151.206,441.197 151.169,428.387 273.005,499.191 	"/>
	<polygon style="fill:#ACABB1;" points="331.501,465.418 209.665,394.615 185.564,294.046 307.399,364.849 	"/>
	<polygon style="fill:#77767E;" points="307.399,364.849 185.564,294.046 196.397,284.807 318.233,355.61 	"/>
	<polygon style="fill:#898890;" points="318.233,355.61 345.664,470.071 273.042,512 273.005,499.191 331.501,465.418 
		307.399,364.849 	"/>
</g>
<polygon style="fill:#C6C5CB;" points="424.162,169.572 116.91,0 87.838,6.366 87.841,6.368 87.838,271.821 87.838,271.821 
	87.838,307.434 400.293,492.232 400.296,205.064 400.296,205.064 400.296,177.758 156.706,44.141 400.38,177.797 405.139,176.152 
	400.296,177.844 400.299,492.114 423.933,479.374 423.969,169.639 "/>
<path style="fill:#1D1D1F;" d="M224.729,362.239c-3.967-2.29-7.193-0.451-7.207,4.106c-0.013,4.559,3.192,10.11,7.16,12.401
	c3.967,2.29,7.193,0.451,7.207-4.106C231.901,370.082,228.696,364.529,224.729,362.239z"/>
<polygon style="fill:#ACABB1;" points="400.296,177.844 400.299,492.114 423.933,479.374 423.969,169.572 "/>
<polygon style="fill:#D8D8DA;" points="116.91,0 87.838,6.366 400.38,177.797 424.162,169.572 "/>
<polygon style="fill:#CCCCCD;" points="116.91,0 87.838,6.366 400.38,177.797 424.162,169.572 "/>
<polygon style="fill:#1D1D1F;" points="400.293,451.997 87.838,271.821 87.841,6.366 400.296,177.758 "/>
<polygon style="fill:#3E3D43;" points="386.497,426.262 99.13,259.52 99.133,26.478 386.499,184.436 "/>
<g>
</g>
<g>
</g>
<g>
</g>
<g>
</g>
<g>
</g>
<g>
</g>
<g>
</g>
<g>
</g>
<g>
</g>
<g>
</g>
<g>
</g>
<g>
</g>
<g>
</g>
<g>
</g>
<g>
</g>
</svg>
